<?xml version="1.0" standalone="no"?>
<!DOCTYPE svg PUBLIC "-//W3C//DTD SVG 20010904//EN"
 "http://www.w3.org/TR/2001/REC-SVG-20010904/DTD/svg10.dtd">
<svg version="1.0" xmlns="http://www.w3.org/2000/svg"
 width="1024.000000pt" height="1024.000000pt" viewBox="0 0 1024.000000 1024.000000"
 preserveAspectRatio="xMidYMid meet">

<g transform="translate(0.000000,1024.000000) scale(0.100000,-0.100000)"
fill="#000000" stroke="none">
<path d="M0 5120 l0 -5120 5120 0 5120 0 0 5120 0 5120 -5120 0 -5120 0 0
-5120z m5505 3505 c208 -18 314 -36 515 -85 258 -64 411 -120 643 -235 127
-63 387 -219 387 -232 0 -2 -6 -1 -12 3 -7 3 2 -8 20 -25 29 -29 31 -34 18
-52 -9 -13 -12 -34 -9 -58 3 -21 0 -47 -6 -59 -9 -18 -8 -19 12 -15 16 3 18 2
8 -5 -10 -8 -8 -13 10 -27 34 -24 25 -20 -185 83 -238 118 -351 164 -601 241
-222 69 -405 108 -660 141 -150 20 -199 22 -420 17 -292 -7 -460 -25 -677 -73
-391 -86 -721 -218 -1088 -432 -235 -137 -419 -285 -560 -448 -52 -60 -119
-138 -150 -174 -66 -75 -116 -143 -259 -350 -100 -146 -141 -211 -206 -337
-38 -73 -71 -131 -73 -129 -2 2 4 18 12 35 23 43 20 52 -4 14 -11 -18 -25 -33
-32 -33 -9 0 -8 -4 2 -11 12 -9 12 -10 -4 -5 -24 8 -58 -2 -51 -15 4 -5 1 -9
-4 -9 -18 0 -12 17 11 34 23 16 23 16 1 6 -29 -13 -33 -13 -33 5 0 9 -7 18
-15 21 -9 4 -14 13 -13 22 2 9 -5 16 -19 17 -13 1 -23 -3 -23 -8 0 -6 -3 -8
-6 -5 -3 3 3 23 14 45 11 21 20 40 19 43 -1 16 43 128 84 215 51 105 170 313
240 418 61 91 254 328 350 431 101 107 329 312 442 397 198 147 561 344 801
434 340 127 568 176 981 208 114 9 390 5 540 -8z m170 -460 c293 -38 548 -104
830 -215 138 -55 368 -164 493 -234 113 -63 182 -114 87 -64 -33 17 -62 35
-65 38 -11 15 -66 37 -79 32 -8 -3 -11 0 -7 7 4 6 1 11 -9 11 -22 0 -29 -26
-17 -66 6 -19 6 -34 1 -34 -22 0 -5 -17 41 -39 28 -14 50 -29 50 -33 0 -4 -29
6 -64 24 -36 17 -62 36 -59 41 3 6 1 7 -5 3 -6 -3 -68 21 -139 55 -417 198
-736 287 -1174 329 -241 24 -333 23 -639 -6 -192 -18 -297 -36 -464 -79 -341
-89 -717 -247 -978 -411 -64 -41 -123 -74 -130 -73 -9 0 -8 2 2 6 8 3 27 14
41 24 47 33 43 143 -4 117 -10 -5 -21 -7 -24 -5 -10 10 250 162 417 244 447
218 835 320 1330 347 128 7 447 -4 565 -19z m-2947 -146 c17 -28 1 -53 -108
-165 -109 -112 -163 -154 -190 -147 -24 6 -27 50 -6 91 18 33 143 156 209 206
55 41 77 45 95 15z m2847 -130 c369 -35 849 -180 1183 -356 103 -54 116 -64
133 -102 10 -23 18 -58 17 -77 -1 -21 4 -39 13 -45 31 -20 -6 -7 -59 20 -188
97 -537 238 -717 290 -134 39 -281 71 -450 98 -152 24 -197 27 -430 27 -286 1
-411 -11 -673 -65 -353 -73 -732 -225 -1130 -452 -57 -33 -106 -56 -109 -53
-4 3 -1 6 6 6 7 0 9 5 6 10 -3 6 3 10 13 10 24 0 36 35 13 37 -24 2 -45 8 -58
16 -8 5 -13 4 -13 -2 0 -6 -5 -11 -11 -11 -24 0 20 36 141 115 199 129 413
241 616 320 483 191 992 263 1509 214z m1596 -107 c-7 -2 -18 1 -23 6 -8 8 -4
9 13 5 13 -4 18 -8 10 -11z m919 -51 c69 -36 102 -126 65 -177 -32 -47 -144
-71 -198 -43 -49 25 -87 72 -87 107 0 102 123 165 220 113z m-2574 -136 c181
-17 314 -38 429 -66 139 -35 346 -100 460 -144 128 -51 345 -151 345 -161 0
-3 -7 -4 -15 -1 -8 4 -17 2 -20 -3 -4 -6 0 -10 7 -10 10 0 10 -2 -1 -9 -9 -6
-12 -23 -10 -55 3 -33 0 -46 -9 -46 -7 0 -11 4 -8 8 2 4 -3 8 -12 9 -9 0 -82
28 -162 61 -241 99 -461 167 -680 212 -261 53 -359 62 -630 63 -238 0 -365
-14 -635 -68 -144 -29 -429 -122 -615 -200 -127 -53 -419 -200 -502 -252 -50
-31 -52 -29 -15 9 18 18 39 31 47 30 11 -2 12 0 3 5 -7 5 -13 25 -15 45 -2 36
-14 42 -51 23 -44 -23 62 50 137 93 303 175 640 313 951 391 295 74 664 98
1001 66z m4 -291 c163 -19 379 -57 475 -85 299 -86 627 -222 859 -356 453
-261 1071 -772 1451 -1199 83 -92 185 -205 228 -250 42 -45 77 -87 77 -92 0
-5 -12 -15 -26 -22 -14 -8 -52 -48 -85 -89 -105 -132 -593 -655 -770 -826 -94
-90 -215 -198 -369 -327 -88 -73 -309 -237 -380 -281 -36 -22 -101 -61 -145
-87 -44 -26 -104 -63 -134 -84 -29 -20 -60 -36 -68 -36 -8 0 -45 -18 -83 -41
-38 -22 -74 -39 -82 -38 -7 1 -48 -14 -91 -34 -42 -20 -84 -37 -93 -37 -8 0
-52 -15 -97 -33 -167 -69 -335 -114 -522 -142 -11 -2 -69 -12 -130 -22 -135
-24 -200 -20 -210 10 l-8 22 -4 -22 c-5 -27 -2 -26 -58 -12 -25 6 -42 16 -39
21 4 6 0 14 -7 19 -12 8 -12 11 1 19 13 8 12 11 -5 24 -19 15 -19 15 8 16 15
0 27 5 27 11 0 6 9 9 20 6 11 -3 23 -1 26 4 7 11 -62 12 -84 1 -10 -5 -35 -4
-62 4 -41 11 -32 12 115 14 88 1 192 6 230 9 39 4 -29 5 -150 3 -322 -7 -517
17 -803 98 -77 22 -147 37 -155 34 -9 -3 -28 2 -44 11 -15 9 -19 13 -8 10 103
-35 64 -12 -65 38 -63 25 -141 57 -173 71 -32 15 -55 21 -51 15 4 -7 0 -9 -15
-5 -67 19 -68 19 -41 -3 27 -22 22 -38 -7 -23 -13 8 -24 5 -41 -8 -25 -21 -69
-14 -98 15 -11 11 -26 14 -43 10 -20 -4 -23 -3 -11 5 11 8 4 10 -30 9 -53 -2
-94 13 -109 38 -6 10 -11 15 -11 10 0 -11 -113 55 -128 75 -7 10 -17 16 -21
14 -16 -10 -215 123 -367 246 -365 295 -686 611 -1070 1053 -67 77 -142 162
-167 189 l-46 49 62 71 c322 369 890 908 1216 1153 421 317 853 537 1298 662
116 33 410 87 563 104 98 11 427 6 550 -9z m1265 -94 c3 -5 2 -10 -4 -10 -5 0
-13 5 -16 10 -3 6 -2 10 4 10 5 0 13 -4 16 -10z m-3395 -191 c-25 -17 -76 -42
-68 -34 13 14 62 44 73 44 6 0 3 -4 -5 -10z m-1280 -654 c0 -5 -5 -3 -10 5 -5
8 -10 20 -10 25 0 6 5 3 10 -5 5 -8 10 -19 10 -25z m6475 -1654 c-45 -404
-199 -873 -392 -1196 -101 -170 -221 -340 -297 -425 -114 -125 -168 -182 -237
-251 -91 -90 -183 -169 -195 -169 -5 0 -2 5 6 10 13 8 12 10 -2 10 -10 0 -18
-4 -18 -10 0 -5 -10 -10 -23 -10 -15 0 -26 -10 -36 -32 -9 -21 -16 -27 -19
-18 -3 8 0 16 6 18 20 6 13 19 -13 24 -14 3 -25 2 -25 -2 0 -6 -15 -15 -62
-38 -5 -2 -8 3 -8 11 0 9 6 18 13 20 7 3 4 6 -6 6 -11 1 -15 6 -11 13 4 7 3 8
-4 4 -7 -4 -20 7 -33 26 -14 23 -19 26 -14 11 5 -18 2 -23 -11 -23 -14 0 -15
-3 -6 -12 10 -10 15 -10 22 2 7 11 10 12 10 2 0 -7 7 -20 15 -28 13 -13 13
-18 -2 -41 -9 -14 -19 -21 -21 -14 -2 6 -12 11 -23 11 -10 0 -19 5 -19 10 0 6
7 10 15 10 8 0 15 7 15 15 0 25 -66 19 -85 -7 -16 -22 -17 -22 -11 -2 5 15 1
23 -16 31 -19 8 -19 10 -5 16 9 3 17 2 17 -3 0 -6 5 -10 10 -10 6 0 8 11 4 25
-4 18 -1 27 11 31 23 9 45 -14 25 -26 -8 -5 -11 -12 -8 -16 4 -3 14 1 24 10
15 15 15 18 0 42 l-17 25 -32 -21 -32 -22 29 25 c15 13 39 24 53 25 18 0 21
-3 12 -9 -11 -7 -11 -9 2 -9 13 0 17 8 15 31 0 18 5 34 12 36 7 3 11 -1 10 -8
-2 -7 6 -15 16 -17 18 -4 19 -3 3 13 -17 17 -15 35 5 35 5 0 7 -7 4 -16 -4
-10 -2 -13 6 -8 29 18 58 49 58 61 0 8 5 11 10 8 6 -4 10 -3 9 2 -4 23 4 32
30 38 18 4 31 14 34 27 4 13 11 19 20 15 8 -3 26 7 41 22 24 25 25 29 10 35
-10 4 -20 3 -23 -2 -8 -13 -115 -100 -181 -148 -30 -22 -96 -70 -145 -106 -86
-64 -378 -228 -515 -290 -202 -92 -537 -200 -751 -242 -336 -66 -612 -83 -936
-55 -589 49 -1297 336 -1788 723 -236 186 -440 384 -598 581 -166 207 -323
472 -436 736 -40 94 -103 298 -115 374 -6 39 6 14 85 -180 124 -303 189 -426
348 -664 186 -279 511 -613 816 -842 167 -125 408 -269 605 -361 293 -137 685
-251 1010 -295 180 -24 593 -24 753 0 448 67 797 182 1182 389 228 123 253
139 450 297 266 212 461 410 634 644 88 120 213 313 274 427 74 138 181 394
231 555 26 83 53 166 59 186 8 25 35 57 87 102 l75 65 3 -30 c2 -16 -4 -96
-13 -177z m-484 -289 c-26 -37 -28 -53 -2 -24 10 12 24 22 30 22 7 0 9 5 6 10
-3 6 -1 10 5 10 21 0 2 -48 -73 -183 -247 -446 -584 -841 -952 -1116 -208
-155 -365 -251 -410 -250 -26 0 -23 3 18 15 26 8 45 19 42 25 -4 5 -3 9 2 8
23 -4 31 3 28 22 -4 18 -2 19 12 7 13 -10 17 -10 20 0 3 6 10 12 17 12 7 0 21
7 32 16 10 8 14 13 7 10 -6 -4 -19 1 -27 10 -19 18 -22 4 -3 -15 10 -11 9 -13
-5 -8 -9 3 -19 1 -22 -6 -3 -8 -7 -9 -13 -1 -5 7 -16 6 -33 -3 -14 -7 -19 -13
-12 -13 7 0 11 -4 8 -8 -3 -5 -19 -8 -37 -7 -23 1 -33 -3 -37 -17 -2 -10 -11
-18 -19 -18 -10 0 -14 7 -10 19 3 12 -1 22 -9 25 -9 3 -14 -1 -14 -12 0 -11
-14 -21 -41 -30 -23 -7 -44 -10 -47 -7 -3 3 0 5 6 5 7 0 12 9 12 20 0 11 -4
20 -10 20 -5 0 -10 15 -10 33 0 22 3 28 9 18 5 -7 13 -11 19 -7 6 3 15 -6 20
-21 6 -16 11 -21 11 -13 1 8 -6 27 -13 43 -8 15 -13 27 -11 27 2 0 12 3 22 6
15 5 15 4 3 -5 -8 -5 -11 -13 -7 -17 9 -10 18 0 21 23 2 12 16 21 44 27 23 5
42 13 42 17 0 5 18 9 39 9 27 0 41 5 45 16 5 12 2 15 -10 10 -9 -4 -14 -1 -12
6 2 6 14 15 27 20 19 7 22 5 17 -7 -3 -9 -2 -13 4 -10 6 3 10 13 10 21 0 9 5
12 12 8 6 -4 8 -3 4 4 -4 7 6 9 29 8 19 -2 32 1 29 6 -3 5 -12 7 -20 4 -8 -3
-14 -1 -14 4 0 6 9 10 19 10 11 0 22 4 26 10 3 5 13 7 23 4 14 -5 14 -4 2 4
-12 9 -10 13 10 21 14 5 39 22 55 38 17 15 70 55 119 88 49 32 119 89 156 125
59 58 45 52 -19 -8 -40 -37 -361 -258 -441 -304 -264 -149 -528 -256 -835
-338 -229 -61 -519 -100 -756 -100 -111 0 -405 29 -574 56 -296 48 -747 215
-1035 384 -130 75 -339 219 -465 319 -135 107 -397 366 -499 492 -58 73 -156
213 -181 259 -15 29 78 -66 213 -215 411 -456 826 -760 1339 -979 541 -232
1163 -302 1733 -196 446 83 829 244 1230 514 309 209 531 413 825 761 61 71
134 154 163 185 l53 55 -26 -47 c-14 -27 -21 -48 -15 -48 5 0 10 6 10 14 0 8
4 16 8 18 15 6 52 66 42 70 -5 1 5 20 22 41 36 43 50 42 19 -1z m-891 -562
c-35 -30 -57 -39 -44 -19 6 10 64 49 74 49 2 0 -11 -13 -30 -30z m-193 -140
c-12 -9 -40 -26 -62 -38 -22 -11 -57 -34 -79 -51 -42 -34 -46 -36 -46 -22 0 5
9 12 19 16 10 3 41 27 68 53 57 57 80 71 104 65 17 -5 17 -7 -4 -23z m-3507
-46 c0 -7 -58 25 -65 36 -3 5 10 1 29 -11 20 -12 36 -23 36 -25z m555 -44 c3
-5 1 -10 -4 -10 -6 0 -11 5 -11 10 0 6 2 10 4 10 3 0 8 -4 11 -10z m102 -46
c-5 -5 -57 13 -57 20 0 3 14 0 31 -6 16 -6 28 -12 26 -14z m2648 7 c-18 -17
-412 -213 -447 -221 -18 -5 -44 -12 -58 -15 -32 -9 138 80 250 130 47 21 121
55 165 76 79 39 108 48 90 30z m-3075 -49 c-7 -3 -19 3 -28 13 -16 15 -15 16
12 4 15 -7 23 -15 16 -17z m172 -76 c4 -6 8 -8 8 -3 0 4 10 1 23 -8 28 -18
114 -45 145 -45 13 0 49 -16 80 -37 31 -20 72 -42 91 -50 67 -28 23 -21 -69
11 -93 32 -330 142 -330 152 0 9 45 -8 52 -20z m2353 -130 c-24 -16 -130 -56
-148 -56 -7 1 2 12 18 25 20 17 38 24 55 20 14 -2 36 2 50 10 32 18 51 19 25
1z m-1085 -20 c0 -11 -19 -15 -25 -6 -3 5 1 10 9 10 9 0 16 -2 16 -4z m-10
-47 c0 -5 -7 -9 -15 -9 -15 0 -20 12 -9 23 8 8 24 -1 24 -14z m-543 -20 c28
-7 64 -23 80 -37 l28 -24 -51 7 c-28 3 -82 14 -120 24 -58 15 -65 19 -45 25
19 7 21 10 10 18 -16 11 19 6 98 -13z m1430 5 c-3 -3 -12 -4 -19 -1 -8 3 -5 6
6 6 11 1 17 -2 13 -5z m-47 -13 c-19 -11 -126 -31 -159 -30 -24 1 125 36 159
38 13 0 13 -1 0 -8z m-1102 -88 c-10 -2 -26 -2 -35 0 -10 3 -2 5 17 5 19 0 27
-2 18 -5z m699 1 c-3 -3 -12 -4 -19 -1 -8 3 -5 6 6 6 11 1 17 -2 13 -5z m-579
-11 c-15 -2 -42 -2 -60 0 -18 2 -6 4 27 4 33 0 48 -2 33 -4z m525 0 c-13 -2
-33 -2 -45 0 -13 2 -3 4 22 4 25 0 35 -2 23 -4z m-116 -10 c-20 -2 -52 -2 -70
0 -17 2 0 4 38 4 39 0 53 -2 32 -4z m2009 -151 c-18 -16 -18 -16 -6 6 6 13 14
21 18 18 3 -4 -2 -14 -12 -24z m-946 -82 c0 -5 -4 -10 -10 -10 -5 0 -10 5 -10
10 0 6 5 10 10 10 6 0 10 -4 10 -10z m-3942 -137 c116 -120 128 -142 107 -183
-9 -18 -23 -30 -35 -30 -42 0 -240 207 -240 250 0 19 44 60 64 60 6 0 53 -43
104 -97z m4077 78 c-15 -14 -240 -111 -256 -111 -8 1 11 11 41 24 30 12 80 35
110 51 46 23 87 40 110 44 2 1 0 -3 -5 -8z m-318 -17 c-3 -3 -12 -4 -19 -1 -8
3 -5 6 6 6 11 1 17 -2 13 -5z m-146 -170 c-25 -8 -47 -12 -49 -9 -5 5 56 23
78 23 8 0 -5 -6 -29 -14z m906 -16 c-3 -8 -6 -5 -6 6 -1 11 2 17 5 13 3 -3 4
-12 1 -19z m280 -9 c-1 -16 -6 -19 -26 -14 -22 6 -23 5 -10 -11 8 -10 9 -15 2
-11 -6 4 -14 3 -18 -3 -11 -18 -23 -11 -18 11 4 12 17 22 34 26 16 3 29 9 29
14 0 5 2 9 4 9 3 0 4 -9 3 -21z m-1302 -9 c-11 -5 -27 -9 -35 -9 -9 0 -8 4 5
9 11 5 27 9 35 9 9 0 8 -4 -5 -9z m1032 -22 c-3 -8 -6 -5 -6 6 -1 11 2 17 5
13 3 -3 4 -12 1 -19z m-1624 -95 c-13 -2 -35 -2 -50 0 -16 2 -5 4 22 4 28 0
40 -2 28 -4z m-2543 -95 c122 -67 149 -94 135 -138 -13 -42 -88 -12 -178 70
-56 51 -74 81 -62 100 8 14 36 5 105 -32z m4120 -58 c-34 -26 -121 -78 -145
-86 -25 -9 40 37 108 76 60 34 73 38 37 10z"/>
<path d="M6840 7666 c0 -2 7 -7 16 -10 8 -3 12 -2 9 4 -6 10 -25 14 -25 6z"/>
<path d="M3430 7530 c0 -5 5 -10 10 -10 6 0 10 5 10 10 0 6 -4 10 -10 10 -5 0
-10 -4 -10 -10z"/>
<path d="M5090 7094 c-387 -33 -622 -86 -947 -215 -276 -110 -658 -330 -945
-547 -249 -187 -614 -525 -791 -732 -50 -58 -126 -142 -170 -187 -43 -45 -76
-86 -73 -91 3 -5 26 -15 52 -22 42 -12 48 -12 59 3 7 9 16 17 21 17 4 0 3 -5
-4 -12 -18 -18 15 -57 372 -442 377 -406 700 -685 1021 -881 189 -116 206
-125 335 -190 427 -214 787 -305 1205 -305 204 0 332 14 515 54 149 32 267 67
382 112 148 58 466 218 579 291 136 89 473 339 574 427 150 131 517 500 692
696 96 107 186 203 201 212 19 13 22 18 10 18 -15 0 -88 75 -88 90 0 15 30 5
36 -12 3 -10 12 -18 21 -18 9 0 13 6 10 15 -8 20 9 28 31 14 14 -9 18 -22 16
-58 -2 -32 0 -40 6 -26 5 11 9 14 9 8 1 -18 61 -17 61 0 0 25 -347 424 -476
548 -185 176 -590 497 -821 650 -246 163 -262 172 -426 254 -330 164 -690 274
-1037 314 -97 12 -363 21 -430 15z m298 -101 c-10 -2 -26 -2 -35 0 -10 3 -2 5
17 5 19 0 27 -2 18 -5z m100 -10 c-10 -2 -26 -2 -35 0 -10 3 -2 5 17 5 19 0
27 -2 18 -5z m79 -9 c-3 -3 -12 -4 -19 -1 -8 3 -5 6 6 6 11 1 17 -2 13 -5z
m-397 -256 c0 -48 21 -699 23 -727 2 -23 -3 -25 -70 -37 -80 -13 -170 -41
-178 -55 -3 -5 -38 -27 -77 -50 -38 -23 -104 -73 -144 -112 l-75 -70 -32 31
c-18 18 -73 54 -122 80 -175 94 -371 205 -409 233 -22 16 -45 29 -52 29 -14 0
-37 -52 -32 -76 2 -10 82 -63 204 -133 111 -64 239 -140 283 -170 l82 -54 24
23 c30 28 32 13 5 -40 -22 -44 -55 -162 -65 -234 l-7 -49 -126 6 c-70 4 -253
7 -406 7 l-279 0 6 73 c14 164 72 365 149 515 193 380 475 633 834 751 155 51
287 77 447 90 13 1 17 -7 17 -31z m353 1 c91 -12 224 -48 317 -88 97 -40 296
-162 372 -226 141 -120 358 -420 426 -591 57 -142 112 -376 112 -474 0 -20 -7
-20 -282 -21 -156 -1 -337 -4 -403 -8 l-120 -6 0 -45 0 -45 404 -3 404 -2 -6
-113 c-11 -214 -124 -527 -238 -660 -22 -26 -45 -47 -50 -47 -5 0 -9 17 -9 39
0 35 -4 41 -56 77 -32 21 -64 44 -73 49 -86 54 -212 140 -286 195 -111 83
-110 82 -157 90 -33 6 -40 4 -50 -14 -6 -11 -7 -18 -3 -14 10 9 35 -16 35 -36
0 -13 53 -58 310 -262 125 -99 204 -154 220 -154 11 0 16 -9 15 -27 0 -30 -22
-63 -41 -63 -7 0 -21 -11 -32 -25 -11 -14 -25 -25 -32 -25 -6 0 -8 -4 -5 -10
3 -5 -2 -10 -12 -10 -17 -1 -17 -2 2 -16 18 -13 17 -14 -14 -8 -25 5 -32 4
-27 -4 5 -8 1 -10 -10 -5 -13 5 -16 3 -11 -10 5 -12 1 -17 -12 -17 -10 0 -24
-7 -31 -15 -7 -8 -16 -12 -21 -10 -5 3 -14 -3 -21 -15 -7 -11 -18 -20 -25 -20
-7 0 -13 -4 -13 -10 0 -15 -70 -41 -92 -34 -10 3 -26 20 -34 37 -43 83 -151
258 -194 312 -26 33 -68 92 -93 132 -26 40 -55 74 -68 78 l-22 7 24 19 c30 24
23 24 -27 1 -21 -10 -50 -23 -64 -30 -14 -6 -18 -11 -10 -11 8 -1 30 -29 47
-64 51 -98 219 -375 263 -434 50 -65 51 -74 4 -26 -20 21 -33 32 -29 24 4 -8
2 -17 -6 -22 -23 -15 -39 -10 -50 14 -9 21 -9 20 -4 -5 3 -14 7 -32 10 -40 7
-17 -31 -22 -41 -6 -5 7 -1 9 9 5 12 -4 17 -1 17 9 0 10 -6 14 -15 10 -21 -8
-31 20 -15 39 13 16 0 21 -15 6 -14 -14 -65 -1 -65 16 0 10 -6 12 -20 8 -11
-3 -20 -2 -20 3 0 13 29 24 43 16 7 -4 7 -1 -1 7 -15 16 -47 1 -47 -22 0 -22
-18 -38 -32 -28 -7 7 -13 5 -15 -3 -4 -10 -9 -10 -23 2 -14 11 -19 12 -22 3
-6 -18 -23 -16 -23 2 0 8 5 15 10 15 6 0 10 5 10 10 0 21 -20 9 -26 -16 l-7
-26 -18 29 -19 28 -1 -30 c-1 -17 -3 -22 -6 -12 -2 9 -9 17 -14 17 -13 0 -11
-38 3 -42 9 -3 9 -6 0 -12 -7 -4 -14 5 -20 26 l-8 33 -7 -27 c-7 -28 -27 -39
-27 -15 0 8 -4 7 -10 -3 -8 -12 -10 -11 -10 8 0 12 -4 22 -10 22 -5 0 -11 -37
-13 -82 -1 -46 -4 37 -5 183 -2 288 -6 326 -31 333 -9 3 -47 2 -86 -3 -38 -5
-60 -9 -48 -10 54 -3 53 3 53 -222 0 -115 -3 -209 -8 -209 -4 0 -12 8 -19 19
-8 12 -19 17 -35 14 -15 -3 -30 2 -37 11 -9 11 -10 16 -2 16 6 0 11 5 11 10 0
6 -7 10 -16 10 -8 0 -13 4 -10 9 3 5 0 9 -7 8 -31 -1 -48 4 -43 12 3 5 -2 12
-11 15 -15 6 -15 8 -3 16 8 6 11 10 5 10 -5 0 -17 -5 -25 -10 -11 -7 -11 -10
-2 -10 7 0 10 -4 7 -10 -12 -19 -34 -11 -30 10 4 18 0 20 -29 14 -22 -4 -36
-1 -41 6 -6 9 -10 9 -17 -1 -6 -9 -8 0 -4 29 6 38 -6 59 -17 30 -2 -7 -8 -10
-12 -6 -4 4 -3 13 2 20 6 8 7 22 2 33 l-8 20 -1 -20 -1 -20 -8 20 c-5 11 -6
27 -3 35 3 9 -4 6 -17 -7 -11 -12 -21 -28 -22 -35 0 -8 -2 -9 -5 -2 -4 10 31
76 115 216 9 15 22 29 29 30 8 2 -11 15 -42 29 -30 14 -50 19 -45 12 8 -9 7
-14 -4 -19 -13 -4 -224 -311 -276 -399 l-11 -20 2 20 c2 12 -2 19 -10 17 -8
-1 -11 2 -7 8 3 5 1 10 -4 10 -6 0 -11 6 -11 13 0 8 -13 26 -30 40 -16 15 -30
34 -30 43 0 10 -6 14 -15 10 -8 -3 -15 0 -15 7 0 7 -11 17 -25 24 -14 6 -25 7
-25 2 0 -5 -7 -9 -15 -9 -8 0 -15 -5 -15 -12 0 -6 -3 -8 -6 -5 -4 4 -1 13 5
21 10 12 8 13 -10 9 -14 -4 -20 -2 -16 4 4 6 -4 13 -18 15 -13 3 -22 1 -19 -4
3 -5 -7 -6 -23 -2 -34 8 -42 14 -20 14 9 0 17 4 17 9 0 4 -11 6 -25 3 -14 -2
-25 -11 -25 -19 0 -9 -8 -13 -22 -12 -28 4 -51 -9 -42 -23 4 -7 2 -8 -4 -4 -6
4 -26 0 -43 -9 -22 -12 -34 -14 -42 -6 -8 8 -6 11 6 11 25 0 67 23 116 64 24
20 48 33 53 29 6 -3 8 -2 5 4 -3 5 44 51 106 101 183 149 248 213 250 246 2
34 -20 51 -54 43 -13 -3 -72 -46 -130 -94 -58 -48 -156 -124 -219 -168 -62
-44 -131 -97 -153 -117 -22 -21 -43 -36 -47 -33 -5 3 -33 50 -64 105 -122 218
-188 423 -198 615 l-2 50 404 6 c223 4 408 5 413 2 4 -2 7 -18 7 -35 0 -90 63
-243 139 -338 196 -245 524 -332 808 -215 47 20 111 53 142 74 205 140 327
410 293 649 -13 95 -43 188 -77 242 -17 27 -21 40 -12 43 16 6 -103 128 -180
184 -35 24 -63 47 -63 51 0 3 16 22 36 41 20 20 50 57 68 84 17 26 75 111 130
190 104 151 139 212 151 265 7 32 6 32 -33 32 -23 0 -48 -7 -60 -17 -12 -10
-58 -79 -103 -153 -45 -74 -99 -161 -121 -193 -59 -87 -101 -183 -94 -212 8
-31 9 -31 -62 -1 -56 23 -138 44 -197 49 -29 2 -30 3 -29 52 1 28 5 204 9 393
l7 343 77 -6 c42 -3 111 -11 154 -16z m-1764 -541 c-6 -13 -40 -75 -75 -138
-79 -143 -137 -286 -163 -399 -11 -47 -25 -104 -30 -126 -7 -32 -9 -34 -10
-13 -1 17 -8 29 -21 33 -11 3 -20 11 -20 16 0 6 -4 8 -9 5 -4 -3 -23 6 -41 19
-22 16 -47 25 -70 25 -22 0 -46 8 -58 19 -47 40 -17 112 86 206 36 33 105 97
152 143 48 46 98 90 111 99 13 9 26 19 29 23 3 3 25 20 49 37 24 18 50 41 58
52 19 28 27 27 12 -1z m2992 -55 c12 -13 30 -23 42 -23 22 0 182 -159 246
-245 45 -61 49 -94 16 -123 -14 -12 -28 -22 -31 -22 -3 0 -12 -6 -20 -14 -7
-8 -23 -12 -35 -9 -19 5 -20 3 -14 -18 7 -23 7 -24 -9 -4 -8 11 -16 25 -16 30
-1 36 -119 306 -159 365 -27 39 -74 128 -57 105 9 -11 25 -30 37 -42z m-1572
-476 c51 -34 95 -101 111 -167 35 -146 -79 -294 -237 -308 -70 -6 -92 1 -153
49 -67 53 -93 109 -93 199 0 80 23 129 88 189 64 59 97 72 176 68 53 -2 75 -8
108 -30z m-554 -57 c-9 -18 -18 -30 -21 -28 -2 3 3 19 12 37 9 18 18 30 21 28
2 -3 -3 -19 -12 -37z m2342 -712 c-3 -8 -6 -5 -6 6 -1 11 2 17 5 13 3 -3 4
-12 1 -19z m-10 -50 c-3 -8 -6 -5 -6 6 -1 11 2 17 5 13 3 -3 4 -12 1 -19z
m-10 -40 c-3 -8 -6 -5 -6 6 -1 11 2 17 5 13 3 -3 4 -12 1 -19z m-2551 -432
c20 -21 17 -28 -6 -14 -11 7 -20 16 -20 20 0 12 10 9 26 -6z m355 -59 c-10 -9
-11 -8 -5 6 3 10 9 15 12 12 3 -3 0 -11 -7 -18z m249 -111 c0 -2 -7 -7 -16
-10 -8 -3 -12 -2 -9 4 6 10 25 14 25 6z m1258 -49 c-85 -83 -225 -188 -250
-186 -7 0 -4 4 7 9 17 7 17 9 3 9 -18 1 -26 21 -9 21 5 0 16 7 24 15 8 8 39
25 68 38 30 14 68 36 84 50 65 55 80 66 88 67 4 0 -2 -10 -15 -23z m-648 -47
c0 -5 -4 -10 -10 -10 -5 0 -10 5 -10 10 0 6 5 10 10 10 6 0 10 -4 10 -10z m80
-52 c0 -15 -15 -8 -28 12 -12 19 -11 20 8 8 11 -7 20 -16 20 -20z m135 12 c3
-5 1 -10 -4 -10 -6 0 -11 5 -11 10 0 6 2 10 4 10 3 0 8 -4 11 -10z m-115 -45
c7 -9 8 -15 2 -15 -5 0 -12 7 -16 15 -3 8 -4 15 -2 15 2 0 9 -7 16 -15z m158
-130 c-3 -3 -54 -23 -114 -45 -116 -43 -254 -75 -378 -88 l-76 -8 2 55 c1 36
3 44 5 24 2 -18 8 -33 13 -33 5 0 59 7 119 15 60 9 124 13 142 10 32 -6 129
20 140 37 4 6 33 16 65 23 68 14 89 17 82 10z m-775 -80 c55 -6 67 -11 67 -25
0 -10 -6 -20 -12 -22 -37 -13 -310 31 -323 52 -5 9 173 6 268 -5z"/>
<path d="M4488 6458 c-16 -5 -28 -16 -28 -24 0 -7 20 -40 43 -71 24 -32 70
-96 102 -143 65 -95 199 -270 238 -312 29 -31 58 -36 77 -13 22 26 20 29 -245
415 -117 171 -119 173 -187 148z"/>
<path d="M6305 6005 c-44 -35 -138 -99 -210 -141 -252 -149 -262 -157 -251
-199 11 -45 81 -30 166 35 19 14 69 47 110 72 177 106 292 182 300 198 11 20
-8 100 -24 100 -6 0 -47 -29 -91 -65z"/>
<path d="M5704 4698 l-19 -23 23 19 c12 11 22 21 22 23 0 8 -8 2 -26 -19z"/>
<path d="M4600 4319 c0 -5 5 -7 10 -4 6 3 10 8 10 11 0 2 -4 4 -10 4 -5 0 -10
-5 -10 -11z"/>
<path d="M4870 4271 c0 -10 39 -31 44 -23 2 4 -7 12 -20 19 -13 6 -24 8 -24 4z"/>
<path d="M4930 4260 c0 -5 7 -7 15 -4 8 4 15 8 15 10 0 2 -7 4 -15 4 -8 0 -15
-4 -15 -10z"/>
<path d="M5521 4121 c-10 -6 -10 -10 -1 -16 13 -8 24 -1 19 14 -3 6 -10 7 -18
2z"/>
<path d="M5556 4121 c-4 -7 -5 -15 -2 -18 9 -9 19 4 14 18 -4 11 -6 11 -12 0z"/>
<path d="M5363 3753 c9 -2 23 -2 30 0 6 3 -1 5 -18 5 -16 0 -22 -2 -12 -5z"/>
<path d="M2810 4505 c19 -19 36 -35 39 -35 3 0 -10 16 -29 35 -19 19 -36 35
-39 35 -3 0 10 -16 29 -35z"/>
<path d="M2860 4456 c0 -2 8 -10 18 -17 15 -13 16 -12 3 4 -13 16 -21 21 -21
13z"/>
<path d="M3594 3878 c0 -11 5 -17 14 -13 7 3 26 -2 43 -10 45 -24 34 -10 -14
17 -39 22 -43 23 -43 6z"/>
<path d="M3600 3840 c0 -5 4 -10 9 -10 6 0 13 5 16 10 3 6 -1 10 -9 10 -9 0
-16 -4 -16 -10z"/>
<path d="M3920 3698 c0 -6 3 -8 6 -5 4 3 16 2 28 -4 20 -10 20 -10 2 5 -24 19
-36 20 -36 4z"/>
<path d="M5958 3463 c7 -3 16 -2 19 1 4 3 -2 6 -13 5 -11 0 -14 -3 -6 -6z"/>
<path d="M5918 3453 c7 -3 16 -2 19 1 4 3 -2 6 -13 5 -11 0 -14 -3 -6 -6z"/>
<path d="M5878 3443 c7 -3 16 -2 19 1 4 3 -2 6 -13 5 -11 0 -14 -3 -6 -6z"/>
<path d="M7629 3183 l-24 -28 28 24 c15 14 27 26 27 28 0 8 -8 1 -31 -24z"/>
<path d="M7580 3140 c-9 -6 -10 -10 -3 -10 6 0 15 5 18 10 8 12 4 12 -15 0z"/>
<path d="M7510 3075 c-38 -39 -41 -45 -23 -45 12 0 25 4 28 10 3 6 -1 7 -12 4
-10 -3 0 11 21 30 22 20 37 38 35 41 -3 2 -25 -16 -49 -40z"/>
<path d="M7626 2835 c-11 -8 -15 -15 -9 -15 6 0 16 7 23 15 16 19 11 19 -14 0z"/>
<path d="M7566 2795 c4 -8 11 -15 16 -15 6 0 5 6 -2 15 -7 8 -14 15 -16 15 -2
0 -1 -7 2 -15z"/>
<path d="M7538 2773 c18 -7 4 -23 -16 -17 -14 5 -14 4 -2 -4 10 -8 18 -8 27 0
14 12 8 28 -10 27 -9 0 -8 -2 1 -6z"/>
<path d="M7485 2710 c3 -5 8 -10 11 -10 2 0 4 5 4 10 0 6 -5 10 -11 10 -5 0
-7 -4 -4 -10z"/>
<path d="M7308 2663 c7 -3 16 -2 19 1 4 3 -2 6 -13 5 -11 0 -14 -3 -6 -6z"/>
<path d="M7220 2635 c0 -8 4 -15 10 -15 5 0 7 7 4 15 -4 8 -8 15 -10 15 -2 0
-4 -7 -4 -15z"/>
<path d="M7280 3309 c0 -5 5 -7 10 -4 6 3 10 8 10 11 0 2 -4 4 -10 4 -5 0 -10
-5 -10 -11z"/>
<path d="M6685 3010 c-4 -6 5 -10 20 -10 15 0 24 4 20 10 -3 6 -12 10 -20 10
-8 0 -17 -4 -20 -10z"/>
</g>
</svg>
